<svg width="445" height="445" viewBox="0 0 445 445" fill="none" xmlns="http://www.w3.org/2000/svg">
<path opacity="0.3" d="M426.348 300.633C383.173 401.342 268.166 457.76 168.432 442.541C152.203 440.065 107.712 432.688 68.3206 397.888C-7.51009 330.894 -23.727 198.238 37.4433 104.752C81.9644 36.7102 161.773 -1.86016 237.607 0.0690753C253.942 0.484673 316.543 3.04581 371.559 47.9867C379.639 54.5876 397.462 70.2732 413.525 95.1574C451.243 153.59 454.485 235 426.348 300.633Z" fill="url(#paint0_linear_6_110)"/>
<path d="M362.87 77.1089C363.265 75.8905 361.844 74.8892 360.818 75.6549C350.392 83.4304 324.747 107.348 325.125 154.283C325.6 213.171 311.091 232.989 294.561 244.205C294.561 244.205 315.936 240.477 331.393 220.45C369.345 171.28 355.851 98.7729 362.87 77.1089Z" fill="url(#paint1_linear_6_110)"/>
<path d="M353.639 94.4356C351.726 100.768 349.938 107.134 348.386 113.557C346.8 119.97 345.41 126.429 344.222 132.922C343.06 139.418 342.02 145.936 341.258 152.488C340.467 159.036 339.958 165.611 339.47 172.214C338.945 178.81 338.454 185.459 337.281 192.077C336.116 198.682 334.144 205.255 331.03 211.273C330.252 212.772 329.444 214.263 328.556 215.692C327.694 217.138 326.767 218.545 325.816 219.936C323.9 222.709 321.796 225.359 319.505 227.841C314.91 232.795 309.564 237.044 303.814 240.502C303.209 240.866 302.423 240.67 302.059 240.065C301.702 239.471 301.884 238.702 302.464 238.33L302.468 238.328C303.843 237.447 305.206 236.552 306.524 235.599C307.191 235.133 307.836 234.639 308.49 234.156C309.125 233.65 309.779 233.168 310.398 232.643C312.907 230.583 315.268 228.35 317.452 225.953C321.84 221.187 325.538 215.74 328.523 209.996C329.983 207.107 331.229 204.115 332.239 201.038C333.248 197.959 334.021 194.798 334.615 191.591C335.803 185.173 336.344 178.596 336.915 172.004C337.496 165.411 338.125 158.79 339.025 152.205C339.467 148.911 339.967 145.626 340.526 142.352C340.796 140.713 341.098 139.08 341.396 137.446C341.711 135.815 342.034 134.187 342.371 132.561C343.729 126.06 345.285 119.604 347.043 113.206C348.831 106.817 350.789 100.477 352.987 94.2228C353.05 94.0439 353.246 93.9501 353.425 94.0129C353.598 94.0738 353.691 94.2612 353.639 94.4356Z" fill="white"/>
<path d="M332.359 265.673C332.768 267.998 335.418 269.148 337.412 267.887C348.417 260.926 377.751 238.431 383.062 193.794C387.546 156.101 393.56 136.088 396.92 127.192C397.63 125.311 395.526 123.616 393.837 124.708C375.206 136.75 317.526 181.457 332.359 265.673Z" fill="url(#paint2_linear_6_110)"/>
<path d="M335.503 266.242C335.545 266.283 335.592 266.319 335.644 266.352C336.073 266.625 336.642 266.498 336.915 266.068C337.225 265.582 367.953 216.787 376.556 164.658C376.639 164.156 376.299 163.682 375.797 163.599C375.295 163.516 374.821 163.856 374.738 164.358C366.198 216.107 335.668 264.596 335.36 265.08C335.12 265.458 335.189 265.945 335.503 266.242Z" fill="white"/>
<path d="M63.8758 381.658C63.8758 384.845 66.4859 387.452 69.6761 387.452H383.331C386.521 387.452 389.131 384.845 389.131 381.658L391.741 201.409C391.741 198.222 387.986 192 381.104 192.468L74.5665 184.536C70.5637 184.432 66.6936 185.973 63.8591 188.798C61.0246 191.624 59.4737 195.486 59.5683 199.485L63.8758 381.658Z" fill="url(#paint3_linear_6_110)"/>
<path d="M69.6021 376.099C69.6021 379.116 72.0714 381.586 75.0895 381.586H375.766C378.785 381.586 381.254 379.116 381.254 376.099L383.717 212.467C383.427 202.62 374.794 199.081 369.561 199.29L75.7719 191.408C72.9598 191.333 70.2411 192.416 68.2493 194.403C66.2576 196.389 65.1622 199.108 65.2328 201.92L69.6021 376.099Z" fill="url(#paint4_linear_6_110)"/>
<path d="M378.005 298.362C378.001 298.362 377.997 298.362 377.993 298.362C377.549 298.356 377.194 297.99 377.201 297.546L377.395 284.275C377.402 283.836 377.76 283.483 378.199 283.483C378.203 283.483 378.207 283.483 378.211 283.483C378.655 283.49 379.01 283.855 379.003 284.3L378.808 297.57C378.802 298.01 378.443 298.362 378.005 298.362Z" fill="white"/>
<path d="M378.482 265.843C378.478 265.843 378.474 265.843 378.47 265.843C378.026 265.837 377.671 265.471 377.678 265.027L378.424 214.202C378.41 211.183 377.494 208.772 375.7 207.053C372.352 203.846 367.037 204.01 366.813 204.02L272.912 201.502C272.468 201.491 272.118 201.121 272.13 200.677C272.141 200.233 272.482 199.855 272.955 199.895L366.801 202.413C367.385 202.379 373.044 202.281 376.813 205.892C378.933 207.924 380.017 210.723 380.033 214.21L379.286 265.051C379.28 265.491 378.921 265.843 378.482 265.843Z" fill="white"/>
<path d="M39.1768 402.415H407.471C407.881 402.415 408.217 402.08 408.217 401.669V387.324C408.217 386.914 407.881 386.578 407.471 386.578H39.1768C38.7665 386.578 38.4307 386.914 38.4307 387.324V401.669C38.4307 402.08 38.7664 402.415 39.1768 402.415Z" fill="url(#paint5_linear_6_110)"/>
<path d="M307.921 106.8L121.606 105.659C115.483 105.622 110.586 110.736 110.889 116.852L123.707 381.561H331.041L342.553 145.058L307.921 106.8Z" fill="url(#paint6_linear_6_110)"/>
<path d="M315.668 143.924C309.599 143.71 304.933 138.48 305.411 132.426L307.409 107.149L342.589 144.903L315.668 143.924Z" fill="url(#paint7_linear_6_110)"/>
<g opacity="0.79">
<path opacity="0.78" d="M133.766 258.344C166.42 258.525 291.775 259.118 323.429 259.268C327.422 259.286 330.675 261.26 330.618 263.623C330.564 265.873 327.514 267.648 323.713 267.64L134.159 267.262C130.508 267.255 127.395 265.6 126.976 263.445L126.871 262.9C126.393 260.436 129.59 258.321 133.766 258.344Z" fill="white"/>
</g>
<g opacity="0.79">
<path opacity="0.78" d="M137.295 349.195C168.535 349.25 288.461 349.358 318.744 349.385C322.564 349.388 325.68 351.349 325.631 353.713C325.584 355.963 322.668 357.749 319.033 357.756L137.688 358.111C134.195 358.118 131.213 356.475 130.809 354.322L130.707 353.777C130.245 351.315 133.3 349.187 137.295 349.195Z" fill="white"/>
</g>
<g opacity="0.79">
<path opacity="0.78" d="M217.691 277.453C236.567 277.49 309.03 277.526 327.328 277.535C329.637 277.536 331.487 279.494 331.417 281.857C331.35 284.107 329.559 285.894 327.362 285.904L217.779 286.366C215.668 286.375 213.894 284.735 213.686 282.583L213.633 282.038C213.395 279.577 215.277 277.448 217.691 277.453Z" fill="white"/>
</g>
<path opacity="0.79" d="M219.843 295.662C238.071 295.529 308.044 294.912 325.713 294.755C327.942 294.736 329.74 296.677 329.687 299.041C329.637 301.29 327.918 303.094 325.797 303.123L219.983 304.574C217.945 304.602 216.221 302.978 216.007 300.828L215.953 300.284C215.708 297.825 217.513 295.679 219.843 295.662Z" fill="white"/>
<path opacity="0.79" d="M221.376 313.458C239.248 313.434 307.856 313.238 325.181 313.188C327.366 313.182 329.117 315.134 329.05 317.497C328.987 319.747 327.29 321.54 325.21 321.556L221.457 322.37C219.459 322.386 217.779 320.752 217.583 318.6L217.533 318.056C217.309 315.596 219.091 313.461 221.376 313.458Z" fill="white"/>
<path opacity="0.79" d="M220.609 331.601C238.48 331.577 307.088 331.381 324.413 331.331C326.598 331.325 328.349 333.277 328.283 335.641C328.219 337.89 326.523 339.683 324.443 339.7L220.69 340.514C218.691 340.529 217.012 338.895 216.815 336.743L216.766 336.199C216.541 333.739 218.323 331.604 220.609 331.601Z" fill="white"/>
<g opacity="0.81">
<path d="M314.729 246.298L326.823 246.25L327.253 202.469L315.161 202.278L314.729 246.298Z" fill="#F4F7FA"/>
<path d="M292.9 246.385L305.23 246.336L306.182 149.544L293.856 149.061L292.9 246.385Z" fill="#F4F7FA"/>
<path d="M270.64 246.473L283.215 246.423L284.033 163.18L271.463 162.768L270.64 246.473Z" fill="#F4F7FA"/>
<path d="M247.936 246.563L260.763 246.512L260.984 223.97L248.159 223.895L247.936 246.563Z" fill="#F4F7FA"/>
<path d="M224.775 246.655L237.86 246.603L238.386 193.089L225.304 192.838L224.775 246.655Z" fill="#F4F7FA"/>
<path d="M201.143 246.749L214.495 246.696L215.261 168.789L201.913 168.397L201.143 246.749Z" fill="#F4F7FA"/>
<path d="M177.025 246.845L190.652 246.791L191.216 189.395L177.592 189.118L177.025 246.845Z" fill="#F4F7FA"/>
<path d="M152.406 246.942L166.317 246.887L167.201 156.94L153.295 156.469L152.406 246.942Z" fill="#F4F7FA"/>
<path d="M127.27 247.042L141.473 246.986L142.466 145.964L128.269 145.424L127.27 247.042Z" fill="#F4F7FA"/>
</g>
<path d="M136.384 338.501L201.068 338.24C204.744 338.225 207.744 334.117 207.794 329.031L208.201 287.64C208.252 282.429 205.193 278.21 201.428 278.3L136.731 279.835C133.093 279.921 130.15 284.008 130.101 289.043L129.706 329.16C129.655 334.319 132.656 338.516 136.384 338.501Z" fill="#F4F7FA"/>
<g opacity="0.78">
<path d="M151.408 303.081C156.365 303.388 157.141 299.421 162.028 299.084C170.318 298.513 172.236 309.688 180.219 309.597C186.735 309.521 188.449 302.006 194.89 302.904C199.679 303.571 200.579 307.998 205.247 308.678C206.179 308.813 207.098 308.773 207.995 308.601L207.803 328.129C207.748 333.715 204.453 338.227 200.416 338.243L137.209 338.498C133.027 338.515 129.661 333.806 129.718 328.019L130.07 292.197C134.251 292.655 137.293 293.995 139.468 295.344C144.7 298.589 146.406 302.77 151.408 303.081Z" fill="white"/>
</g>
<path d="M324.411 385.236C328.628 385.6 335.948 386.192 341.718 386.446C345.187 386.599 347.184 386.259 348.334 385.799C348.332 385.928 348.328 386.051 348.323 386.165C348.296 386.772 347.803 387.258 347.189 387.292C336.286 387.901 327.614 387.503 324.527 387.315C323.889 387.276 323.508 386.582 323.835 386.038C323.998 385.766 324.196 385.499 324.411 385.236Z" fill="url(#paint8_linear_6_110)"/>
<path d="M341.718 386.446C335.948 386.192 328.628 385.6 324.411 385.236C328.557 380.148 341.718 376.719 341.718 376.719H345.435C347.992 380.405 348.362 383.913 348.334 385.799C347.184 386.259 345.187 386.599 341.718 386.446Z" fill="url(#paint9_linear_6_110)"/>
<path d="M346.061 370.651L345.713 377.535C345.676 378.28 345.118 378.906 344.371 379.013C343.629 379.119 342.634 379.133 341.579 378.782C340.93 378.566 340.448 378.019 340.329 377.352L339.127 370.651H346.061Z" fill="url(#paint10_linear_6_110)"/>
<path d="M394.341 386.394C396.17 386.139 396.998 385.189 397.345 384.174C397.347 384.183 397.349 384.192 397.351 384.201C397.621 385.272 396.997 386.383 395.75 386.911C394.242 387.549 392.594 387.658 391.315 387.605C389.942 387.549 388.682 386.98 387.989 386.071L387.979 386.058C389.357 386.74 391.291 386.82 394.341 386.394Z" fill="url(#paint11_linear_6_110)"/>
<path d="M385.718 370.607H388.783C393.453 370.512 396.385 380.36 397.345 384.174C396.998 385.189 396.17 386.139 394.341 386.395C391.291 386.82 389.357 386.74 387.979 386.058C385.456 382.738 384.206 377.877 383.605 375.039C382.921 371.812 385.718 370.607 385.718 370.607Z" fill="url(#paint12_linear_6_110)"/>
<path d="M388.39 364.218L390.092 370.988C390.3 371.818 389.903 372.677 389.136 373.071C388.184 373.559 386.843 374.073 385.611 373.924C385.031 373.854 384.55 373.446 384.358 372.901L381.859 365.778L388.39 364.218Z" fill="url(#paint13_linear_6_110)"/>
<path d="M390.42 366.175C388.302 368.053 381.414 368.301 381.414 368.301C356.601 308.748 346.451 300.287 346.451 300.287C350.034 322.766 347.029 372.53 347.029 372.53C342.934 374.337 337.655 372.53 337.655 372.53C337.323 335.73 331.666 303.637 324.984 278.336C341.755 277.959 350.673 272.22 353.585 269.916C367.564 292.454 390.42 366.175 390.42 366.175Z" fill="url(#paint14_linear_6_110)"/>
<path d="M349.326 201.43C352.5 217.263 351.363 245.602 350.615 258.528C350.405 262.162 352.942 267.198 354.992 270.634C355.313 271.173 355.115 271.863 354.556 272.15C351.124 273.914 339.497 279.381 326.021 280.061C325.123 280.107 324.32 279.495 324.088 278.626C314.092 241.302 302.481 217.452 302.481 217.452C315.3 196.982 349.326 201.43 349.326 201.43Z" fill="url(#paint15_linear_6_110)"/>
<path d="M344.758 298.878C344.898 298.878 345.041 298.84 345.17 298.761C345.545 298.532 345.664 298.044 345.436 297.67C345.302 297.451 342.093 292.263 335.597 289.129C335.203 288.94 334.728 289.104 334.536 289.499C334.346 289.894 334.511 290.37 334.907 290.56C340.962 293.482 344.048 298.447 344.078 298.497C344.228 298.742 344.49 298.878 344.758 298.878Z" fill="url(#paint16_linear_6_110)"/>
<path d="M369.237 246.872C368.217 254.248 365.205 262.293 359.178 270.839L356.887 268.971C356.887 268.971 359.532 258.242 358.028 246.065C361.746 245.34 366.136 246.087 369.237 246.872Z" fill="url(#paint17_linear_6_110)"/>
<path d="M345.78 220.966L349.326 201.43C349.326 201.43 373.015 219.537 369.236 246.872C366.136 246.087 361.746 245.34 358.028 246.065C356.945 237.293 353.71 227.771 345.78 220.966Z" fill="url(#paint18_linear_6_110)"/>
<path d="M302.481 217.452L311.625 237.145C310.147 249.034 303.76 254.174 296.873 256.146C296.444 250.727 295.074 246.35 293.803 243.322C302.602 234.237 302.481 217.452 302.481 217.452Z" fill="url(#paint19_linear_6_110)"/>
<path d="M293.803 243.322C295.074 246.35 296.444 250.728 296.873 256.146C278.5 263.275 273.639 249.45 273.639 249.45L277.035 248.851C284.703 249.659 290.059 247.187 293.803 243.322Z" fill="url(#paint20_linear_6_110)"/>
<path d="M310.906 193.14L315.32 209.367C315.816 211.19 317.788 212.169 319.542 211.468C321.435 210.711 323.837 209.678 325.905 208.562C328.112 207.37 328.803 204.531 327.405 202.448L318.228 188.764L310.906 193.14Z" fill="url(#paint21_linear_6_110)"/>
<path d="M265.219 238.591L378.334 279.76C383.078 281.487 385.346 286.889 383.256 291.484L382.913 292.239C381.064 296.305 376.258 298.089 372.204 296.213L262.37 245.403L265.219 238.591Z" fill="url(#paint22_linear_6_110)"/>
<path opacity="0.27" d="M213.226 268.658C244.065 268.658 269.065 244.109 269.065 213.826C269.065 183.543 244.065 158.994 213.226 158.994C182.387 158.994 157.387 183.543 157.387 213.826C157.387 244.109 182.387 268.658 213.226 268.658Z" fill="white"/>
<path d="M151.092 213.826C151.092 247.523 178.91 274.839 213.226 274.839C247.542 274.839 275.36 247.523 275.36 213.826C275.36 180.129 247.542 152.813 213.226 152.813C178.91 152.813 151.092 180.129 151.092 213.826ZM160.219 213.826C160.219 185.079 183.951 161.775 213.226 161.775C242.501 161.775 266.233 185.079 266.233 213.826C266.233 242.573 242.501 265.876 213.226 265.876C183.951 265.876 160.219 242.573 160.219 213.826Z" fill="url(#paint23_linear_6_110)"/>
<path d="M270.636 221.464C270.615 221.464 270.594 221.462 270.573 221.46C270.3 221.425 270.108 221.176 270.143 220.904C270.324 219.489 270.452 218.041 270.524 216.6C270.537 216.325 270.787 216.11 271.044 216.128C271.319 216.142 271.53 216.375 271.516 216.649C271.443 218.116 271.313 219.59 271.129 221.03C271.096 221.28 270.882 221.464 270.636 221.464ZM270.209 204.403C269.973 204.403 269.764 204.234 269.721 203.993C269.029 200.136 267.92 196.34 266.424 192.711C266.424 192.711 266.424 192.709 266.423 192.708C257.608 171.323 236.727 157.504 213.226 157.504C202.266 157.504 191.613 160.549 182.417 166.308C182.184 166.453 181.878 166.383 181.732 166.15C181.587 165.917 181.657 165.611 181.89 165.465C191.244 159.607 202.08 156.511 213.226 156.511C237.13 156.511 258.371 170.571 267.341 192.328C267.341 192.328 267.342 192.329 267.342 192.329C268.865 196.025 269.995 199.89 270.699 203.818C270.748 204.088 270.568 204.347 270.298 204.395C270.268 204.4 270.238 204.403 270.209 204.403Z" fill="white"/>
<path d="M301.248 180.81C301.208 181.089 304.93 199.329 304.93 199.329L315.3 196.982L314.34 179.171C314.34 179.171 301.921 176.145 301.248 180.81Z" fill="url(#paint24_linear_6_110)"/>
<path d="M312.008 183.14L313.247 192.476C313.263 192.596 313.263 192.714 313.246 192.834C313.141 193.566 312.597 196.058 310.082 195.345C307.799 194.699 305.707 194.143 304.261 194.585C303.612 194.783 303.221 195.44 303.357 196.105C303.695 197.763 304.527 201.483 305.743 204.604C305.99 205.238 306.684 205.57 307.337 205.38C309.303 204.807 313.417 203.482 316.477 201.64C316.892 201.391 317.139 200.94 317.118 200.456C317.019 198.099 316.743 190.934 316.975 188.926C317.193 187.04 319.506 185.911 320.512 185.506C320.841 185.373 321.1 185.114 321.231 184.784C321.697 183.617 322.339 180.918 318.937 179.812C318.225 179.58 317.85 178.813 318.103 178.108C318.607 176.705 318.819 174.565 316.187 173.385C313.513 172.187 311.515 173.613 310.436 174.771C310 175.24 309.3 175.311 308.759 174.969C308.451 174.775 308.054 174.711 307.575 175.009C306.929 175.412 306.073 175.138 305.739 174.453C305.099 173.139 303.793 171.73 301.175 172.179C296.528 172.974 296.002 178.124 297.228 181.141C298.453 184.158 303.442 183.009 305.945 181.488C307.848 180.331 310.316 181.544 311.39 182.191C311.73 182.396 311.955 182.746 312.008 183.14Z" fill="url(#paint25_linear_6_110)"/>
<path d="M317.393 192.33C317.393 192.33 315.482 186.98 317.445 185.67C319.408 184.36 322.314 185.04 321.674 188.915C320.878 193.736 317.393 192.33 317.393 192.33Z" fill="url(#paint26_linear_6_110)"/>
<path d="M357.832 268.646L347.138 267.775L342.507 272.044C342.507 272.044 343.603 273.558 347.028 272.688C350.454 271.817 355.146 271.604 355.146 271.604C355.146 271.604 359.874 273.735 359.932 269.747L357.832 268.646Z" fill="url(#paint27_linear_6_110)"/>
<path d="M275.001 251.979C274.076 252.702 270.908 251.193 268.969 250.151C268.024 249.642 267.567 248.537 267.891 247.515C268.358 246.043 269.135 244.144 270.093 243.905C271.682 243.507 278.812 249.002 275.001 251.979Z" fill="url(#paint28_linear_6_110)"/>
<path d="M376.103 294.71C375.897 294.71 375.704 294.581 375.633 294.376C375.543 294.116 375.681 293.833 375.94 293.744C379.099 292.652 380.752 290.891 380.855 288.509C380.96 286.092 379.43 283.844 377.049 282.916L363.467 277.62C363.211 277.521 363.084 277.233 363.184 276.977C363.283 276.721 363.572 276.595 363.827 276.695L377.409 281.99C380.187 283.074 381.97 285.71 381.847 288.552C381.763 290.497 380.727 293.141 376.265 294.683C376.211 294.701 376.156 294.71 376.103 294.71Z" fill="white"/>
<path d="M359.463 276.022C359.402 276.022 359.341 276.011 359.282 275.988L357.522 275.302C357.266 275.202 357.139 274.914 357.239 274.659C357.339 274.403 357.628 274.277 357.882 274.376L359.643 275.062C359.899 275.162 360.025 275.45 359.925 275.705C359.849 275.902 359.661 276.022 359.463 276.022Z" fill="white"/>
<g opacity="0.3">
<path d="M141.386 136.144C142.039 135.999 142.71 136.367 142.927 137.015C143.403 138.433 143.823 139.893 144.178 141.353C144.351 142.064 143.915 142.78 143.204 142.953C143.196 142.955 143.187 142.956 143.179 142.958C142.477 143.115 141.776 142.681 141.605 141.978C141.268 140.591 140.869 139.204 140.417 137.858C140.185 137.165 140.558 136.414 141.251 136.182C141.296 136.166 141.341 136.154 141.386 136.144ZM143.81 147.419C143.86 147.408 143.912 147.4 143.965 147.394C144.692 147.32 145.342 147.85 145.416 148.577C145.568 150.071 145.658 151.587 145.682 153.081C145.694 153.812 145.114 154.412 144.38 154.427C143.649 154.439 143.047 153.856 143.035 153.125C143.012 151.705 142.926 150.265 142.782 148.845C142.713 148.171 143.164 147.563 143.81 147.419ZM143.691 158.948C143.835 158.916 143.986 158.908 144.141 158.927C144.867 159.017 145.382 159.677 145.292 160.403C145.109 161.89 144.858 163.388 144.547 164.855C144.394 165.57 143.692 166.026 142.977 165.876C142.262 165.724 141.805 165.021 141.957 164.306C142.252 162.913 142.49 161.491 142.665 160.078C142.735 159.507 143.16 159.066 143.691 158.948ZM140.996 170.163C141.234 170.11 141.489 170.122 141.735 170.211C142.422 170.461 142.777 171.221 142.527 171.908C142.015 173.317 141.435 174.721 140.805 176.081C140.497 176.744 139.711 177.032 139.047 176.726C138.384 176.418 138.096 175.631 138.403 174.968C139.001 173.676 139.552 172.343 140.038 171.003C140.199 170.562 140.569 170.258 140.996 170.163ZM135.869 180.495C136.202 180.421 136.564 180.475 136.873 180.674C137.488 181.07 137.665 181.89 137.269 182.504C136.459 183.761 135.584 185.002 134.667 186.191C134.221 186.77 133.389 186.878 132.81 186.431C132.231 185.985 132.124 185.154 132.57 184.574C133.442 183.444 134.274 182.265 135.044 181.07C135.24 180.765 135.541 180.568 135.869 180.495ZM128.584 189.435C129.016 189.339 129.486 189.461 129.818 189.8C130.33 190.322 130.322 191.16 129.8 191.672C128.73 192.721 127.601 193.737 126.446 194.692C125.882 195.158 125.047 195.078 124.582 194.514C124.116 193.951 124.196 193.117 124.759 192.651C125.857 191.743 126.929 190.778 127.946 189.782C128.129 189.602 128.351 189.487 128.584 189.435ZM81.9197 203.058C82.0986 203.018 82.2883 203.015 82.4792 203.055C83.871 203.348 85.2945 203.584 86.7096 203.756C87.4352 203.845 87.952 204.505 87.8636 205.23C87.7756 205.956 87.1156 206.473 86.3896 206.384C84.8992 206.203 83.3999 205.954 81.9342 205.646C81.2186 205.496 80.7607 204.793 80.9113 204.078C81.0216 203.553 81.4285 203.167 81.9197 203.058ZM119.504 196.534C120.041 196.414 120.616 196.639 120.92 197.133C121.303 197.756 121.108 198.571 120.486 198.954C119.209 199.739 117.883 200.478 116.544 201.15C115.889 201.475 115.095 201.215 114.766 200.561C114.438 199.908 114.702 199.112 115.356 198.784C116.627 198.146 117.887 197.444 119.099 196.699C119.228 196.62 119.365 196.565 119.504 196.534ZM93.4005 204.144C93.4858 204.125 93.5742 204.114 93.665 204.113C95.0879 204.086 96.5287 203.998 97.947 203.851C98.6743 203.776 99.3251 204.305 99.4004 205.032C99.4755 205.759 98.9483 206.413 98.22 206.485C96.7277 206.639 95.2116 206.732 93.7144 206.76C92.9834 206.774 92.3796 206.192 92.3663 205.461C92.3541 204.821 92.7989 204.278 93.4005 204.144ZM109.067 201.426C109.719 201.281 110.39 201.648 110.608 202.295C110.842 202.988 110.47 203.739 109.777 203.973C108.359 204.452 106.9 204.876 105.443 205.232C105.434 205.235 105.425 205.237 105.415 205.239C104.714 205.395 104.014 204.962 103.842 204.261C103.669 203.551 104.103 202.834 104.813 202.661C106.198 202.322 107.583 201.919 108.93 201.464C108.976 201.449 109.022 201.436 109.067 201.426Z" fill="url(#paint29_linear_6_110)"/>
<path d="M73.0334 200.329C73.2878 200.272 73.5617 200.29 73.8213 200.396C74.4529 200.655 75.1005 200.904 75.7461 201.139C76.4333 201.388 76.7887 202.147 76.5394 202.834C76.2903 203.522 75.5308 203.878 74.8435 203.627C74.1644 203.381 73.4834 203.119 72.8185 202.846C72.142 202.57 71.8178 201.796 72.0947 201.12C72.2653 200.703 72.6245 200.42 73.0334 200.329Z" fill="url(#paint30_linear_6_110)"/>
</g>
<g opacity="0.3">
<path d="M44.6165 171.668C45.2401 171.529 45.8898 171.859 46.1333 172.472C46.3849 173.106 46.6544 173.746 46.9339 174.373C47.2315 175.041 46.9314 175.824 46.2638 176.121C45.5931 176.42 44.8131 176.118 44.5157 175.451C44.2216 174.791 43.9378 174.117 43.6725 173.449C43.4027 172.77 43.7349 172 44.4143 171.73C44.4808 171.704 44.5487 171.683 44.6165 171.668Z" fill="url(#paint31_linear_6_110)"/>
<path d="M81.2609 102.287C81.8554 102.155 82.4546 102.032 83.0579 101.919C83.7765 101.784 84.4685 102.257 84.6033 102.976C84.7382 103.695 84.2621 104.39 83.5465 104.521C82.1539 104.783 80.7751 105.1 79.433 105.469C78.7271 105.662 77.9996 105.248 77.8057 104.544C77.6118 103.838 78.0263 103.11 78.7313 102.916C79.5615 102.687 80.4127 102.476 81.2609 102.287ZM89.9993 101.102C90.0715 101.086 90.1462 101.076 90.2227 101.072C91.6979 100.998 93.1927 100.986 94.6654 101.037C95.3958 101.062 95.9681 101.674 95.9432 102.405C95.9182 103.135 95.3046 103.71 94.575 103.682C93.1763 103.635 91.7564 103.646 90.3545 103.716C89.6244 103.752 89.0029 103.19 88.9665 102.46C88.9339 101.806 89.3812 101.24 89.9993 101.102ZM72.1582 105.223C72.7674 105.088 73.4061 105.399 73.6611 105.994C73.9493 106.666 73.6381 107.444 72.9662 107.733C71.6808 108.284 70.4017 108.898 69.164 109.558C68.5182 109.901 67.7169 109.658 67.3728 109.013C67.0288 108.367 67.2731 107.565 67.9181 107.222C69.2215 106.526 70.569 105.88 71.9225 105.299C71.9999 105.266 72.0789 105.241 72.1582 105.223ZM101.33 101.788C101.494 101.752 101.668 101.746 101.844 101.777C103.298 102.029 104.758 102.346 106.185 102.72C106.892 102.905 107.315 103.628 107.13 104.335C106.945 105.043 106.222 105.466 105.514 105.28C104.16 104.926 102.773 104.624 101.392 104.385C100.671 104.261 100.188 103.575 100.313 102.855C100.408 102.311 100.822 101.902 101.33 101.788ZM62.2939 110.822C62.7935 110.71 63.3345 110.896 63.6542 111.337C64.0833 111.929 63.9512 112.757 63.359 113.186C62.2271 114.006 61.1143 114.886 60.0512 115.802C59.4975 116.28 58.6614 116.218 58.1841 115.664C57.707 115.11 57.7692 114.274 58.3229 113.797C59.4418 112.832 60.6134 111.906 61.8053 111.042C61.9564 110.933 62.1228 110.86 62.2939 110.822ZM53.8968 118.449C54.2963 118.36 54.7314 118.457 55.0618 118.749C55.6098 119.232 55.6618 120.069 55.1779 120.617C54.25 121.668 53.3553 122.771 52.5192 123.894C52.0834 124.481 51.2542 124.602 50.6669 124.165C50.0804 123.729 49.959 122.899 50.3955 122.313C51.2754 121.131 52.2167 119.971 53.1934 118.865C53.3854 118.647 53.6333 118.508 53.8968 118.449ZM47.3622 127.726C47.666 127.658 47.9946 127.697 48.2888 127.859C48.929 128.212 49.1618 129.017 48.8087 129.657C48.1311 130.886 47.4977 132.157 46.9268 133.435C46.6285 134.102 45.8463 134.402 45.178 134.103C44.5108 133.804 44.2115 133.022 44.5099 132.354C45.111 131.009 45.7773 129.672 46.4902 128.379C46.6812 128.033 47.0044 127.805 47.3622 127.726ZM43.0067 138.206C43.2172 138.159 43.4419 138.163 43.6636 138.228C44.3656 138.432 44.7687 139.167 44.5642 139.869C44.1719 141.215 43.8327 142.594 43.5561 143.966C43.4116 144.682 42.7127 145.146 41.9971 145.002C41.2802 144.858 40.8163 144.16 40.9608 143.443C41.2521 141.998 41.6092 140.546 42.0223 139.128C42.1625 138.648 42.5507 138.307 43.0067 138.206ZM41.0573 149.391C41.1757 149.365 41.2997 149.355 41.4268 149.362C42.1565 149.407 42.712 150.035 42.667 150.764C42.5815 152.161 42.5544 153.579 42.5869 154.981C42.6038 155.712 42.0227 156.318 41.2941 156.335C40.5631 156.352 39.9568 155.773 39.9399 155.042C39.9057 153.566 39.9342 152.073 40.0245 150.603C40.0614 150 40.4962 149.516 41.0573 149.391ZM41.6125 160.723C41.6391 160.717 41.666 160.712 41.6932 160.708C42.4151 160.593 43.0938 161.085 43.2089 161.807C43.3715 162.826 43.5674 163.852 43.7914 164.857C43.8724 165.221 43.9577 165.584 44.0461 165.944C44.2204 166.654 43.7863 167.371 43.0762 167.545C42.3608 167.736 41.6493 167.285 41.475 166.576C41.3818 166.196 41.2925 165.816 41.2072 165.433C40.9717 164.375 40.7657 163.295 40.5946 162.224C40.4834 161.529 40.935 160.874 41.6125 160.723Z" fill="url(#paint32_linear_6_110)"/>
<path d="M112.261 104.966C112.518 104.908 112.794 104.927 113.055 105.035C113.717 105.31 114.386 105.604 115.043 105.909C115.706 106.217 115.994 107.004 115.686 107.667C115.378 108.33 114.591 108.619 113.928 108.31C113.304 108.021 112.669 107.741 112.04 107.48C111.365 107.201 111.045 106.426 111.325 105.751C111.497 105.337 111.855 105.056 112.261 104.966Z" fill="url(#paint33_linear_6_110)"/>
</g>
<path d="M113.856 120.342C113.648 120.178 113.36 120.164 113.138 120.307L106.804 124.381C103.618 122.892 100.172 121.9 96.5754 121.496L93.3002 114.721C93.1854 114.483 92.9323 114.345 92.6702 114.376L83.7004 115.441C83.4382 115.472 83.2248 115.666 83.1687 115.924L81.5715 123.278C78.1697 124.514 75.0514 126.284 72.3027 128.478L65.1911 126.001C64.9418 125.914 64.6649 125.995 64.5016 126.203L58.9123 133.298C58.7489 133.506 58.7351 133.794 58.878 134.016L62.9515 140.349C61.4627 143.536 60.4713 146.982 60.0672 150.579L53.2916 153.854C53.0539 153.969 52.9153 154.222 52.9465 154.484L54.0118 163.454C54.0428 163.716 54.2369 163.929 54.4949 163.985L61.8491 165.582C63.0844 168.984 64.8552 172.103 67.049 174.851L64.5721 181.963C64.4854 182.212 64.5663 182.489 64.7735 182.652L71.8693 188.242C72.0766 188.405 72.3648 188.419 72.5868 188.276L78.9205 184.202C82.1064 185.691 85.553 186.683 89.1494 187.087L92.4246 193.862C92.5394 194.1 92.7924 194.239 93.0545 194.208L102.024 193.142C102.287 193.111 102.5 192.917 102.556 192.659L104.153 185.305C107.555 184.07 110.673 182.299 113.422 180.105L120.533 182.582C120.783 182.669 121.06 182.588 121.223 182.381L126.812 175.285C126.976 175.077 126.989 174.789 126.847 174.567L122.773 168.234C124.262 165.048 125.253 161.601 125.657 158.005L132.433 154.729C132.671 154.615 132.809 154.362 132.778 154.099L131.713 145.13C131.682 144.868 131.488 144.654 131.23 144.598L123.876 143.001C122.64 139.599 120.869 136.481 118.676 133.732L121.153 126.62C121.239 126.371 121.159 126.094 120.951 125.931L113.856 120.342Z" fill="url(#paint34_linear_6_110)"/>
<path opacity="0.56" d="M90.8941 145.427C95.2142 144.465 99.7141 146.793 101.342 151.047C103.131 155.723 100.783 160.982 96.1073 162.772C93.8421 163.639 91.3749 163.571 89.1609 162.583C86.9464 161.594 85.2492 159.802 84.3827 157.537C82.5933 152.861 84.9417 147.601 89.6174 145.812C90.0391 145.651 90.4659 145.523 90.8941 145.427ZM94.3618 161.091C94.6955 161.017 95.0255 160.918 95.3506 160.793C98.9355 159.422 100.736 155.388 99.3643 151.804C97.9923 148.219 93.96 146.417 90.3744 147.79C86.7895 149.162 84.9891 153.195 86.3607 156.78C87.0255 158.516 88.3265 159.89 90.0244 160.648C91.4045 161.264 92.9129 161.414 94.3618 161.091Z" fill="white"/>
<path opacity="0.56" d="M87.8618 132.668C88.6037 132.502 89.3584 132.373 90.1234 132.283C90.3641 132.254 90.6056 132.229 90.8473 132.208C92.0389 132.105 93.2369 132.098 94.4226 132.185C94.4387 132.186 94.4549 132.187 94.471 132.188C94.5168 132.192 94.5627 132.195 94.6086 132.199C94.6979 132.207 94.7871 132.215 94.8762 132.223C95.1104 132.245 95.2946 132.416 95.3435 132.634C95.3552 132.687 95.359 132.743 95.3536 132.8C95.3262 133.091 95.0675 133.304 94.7768 133.277C93.2785 133.136 91.7551 133.155 90.2488 133.334C82.7654 134.222 76.6444 138.916 73.5916 145.248C71.8931 148.769 71.1443 152.798 71.6388 156.96C71.7252 157.69 71.8481 158.41 72.0059 159.117C73.0672 163.88 75.7122 168.098 79.5971 171.157C84.0594 174.673 89.6235 176.24 95.2642 175.57C106.913 174.185 115.257 163.588 113.874 151.944C113.789 151.226 113.668 150.515 113.511 149.814C112.834 146.776 111.5 143.92 109.594 141.456C109.545 141.392 109.512 141.321 109.496 141.247C109.453 141.053 109.521 140.843 109.689 140.713C109.921 140.535 110.253 140.576 110.432 140.808C112.433 143.395 113.834 146.394 114.545 149.583C114.709 150.319 114.836 151.065 114.926 151.819C116.378 164.044 107.61 175.17 95.3893 176.621C89.4675 177.325 83.6265 175.68 78.942 171.989C74.8635 168.777 72.0869 164.349 70.9724 159.35C70.8069 158.607 70.678 157.851 70.5869 157.085C69.8838 151.163 71.5286 145.322 75.2185 140.637C78.4315 136.558 82.8608 133.781 87.8618 132.668Z" fill="white"/>
<g opacity="0.3">
<path d="M177.896 92.2708C178.241 92.1938 178.61 92.3482 178.789 92.6739C179.125 93.2814 179.447 93.9075 179.746 94.5346C179.94 94.9421 179.767 95.4297 179.359 95.6244C178.952 95.8207 178.464 95.6456 178.27 95.2382C177.985 94.6406 177.678 94.0439 177.358 93.464C177.139 93.0693 177.283 92.5719 177.678 92.353C177.749 92.3143 177.822 92.2874 177.896 92.2708Z" fill="url(#paint35_linear_6_110)"/>
<path d="M180.419 98.0321C180.824 97.942 181.239 98.1711 181.372 98.5726C181.749 99.7067 182.072 100.873 182.332 102.039C182.386 102.285 182.438 102.532 182.488 102.78C182.577 103.223 182.263 103.642 181.848 103.743C181.405 103.832 180.974 103.545 180.885 103.103C180.837 102.865 180.788 102.629 180.735 102.395C180.488 101.283 180.18 100.17 179.821 99.0882C179.678 98.6594 179.91 98.197 180.338 98.0542C180.365 98.0459 180.392 98.0382 180.419 98.0321ZM182.089 106.356C182.127 106.347 182.166 106.341 182.206 106.338C182.656 106.304 183.049 106.641 183.083 107.092C183.194 108.536 183.216 110 183.148 111.443C183.127 111.894 182.742 112.242 182.293 112.222C181.842 112.2 181.494 111.818 181.515 111.367C181.579 109.99 181.558 108.594 181.453 107.216C181.422 106.806 181.699 106.443 182.089 106.356ZM181.691 114.836C181.792 114.814 181.899 114.81 182.008 114.828C182.453 114.905 182.751 115.329 182.674 115.774C182.427 117.199 182.089 118.625 181.667 120.011C181.535 120.443 181.08 120.686 180.646 120.555C180.215 120.423 179.971 119.966 180.102 119.535C180.504 118.213 180.827 116.854 181.063 115.495C181.121 115.159 181.377 114.906 181.691 114.836ZM179.22 122.959C179.385 122.922 179.563 122.937 179.729 123.01C180.142 123.194 180.327 123.678 180.144 124.09C179.554 125.414 178.877 126.712 178.131 127.95C177.898 128.337 177.394 128.46 177.009 128.228C176.622 127.995 176.497 127.493 176.73 127.106C177.442 125.926 178.087 124.687 178.65 123.425C178.759 123.179 178.975 123.014 179.22 122.959ZM174.84 130.232C175.07 130.181 175.322 130.229 175.523 130.387C175.878 130.665 175.94 131.179 175.662 131.534C174.768 132.673 173.797 133.768 172.773 134.788C172.453 135.108 171.935 135.106 171.617 134.786C171.298 134.466 171.299 133.948 171.619 133.63C172.595 132.657 173.522 131.612 174.374 130.525C174.496 130.371 174.662 130.272 174.84 130.232ZM168.828 136.221C169.127 136.154 169.451 136.259 169.652 136.517C169.929 136.874 169.864 137.387 169.508 137.664C168.365 138.552 167.155 139.377 165.914 140.115C165.523 140.345 165.024 140.218 164.793 139.83C164.562 139.442 164.69 138.94 165.078 138.709C166.262 138.005 167.415 137.219 168.505 136.373C168.603 136.296 168.714 136.246 168.828 136.221ZM161.536 140.557C161.91 140.473 162.303 140.663 162.463 141.027C162.643 141.441 162.455 141.923 162.041 142.104C160.72 142.682 159.344 143.185 157.953 143.599C157.517 143.72 157.065 143.48 156.936 143.047C156.808 142.614 157.054 142.159 157.487 142.03C158.814 141.636 160.126 141.157 161.386 140.606C161.435 140.584 161.486 140.568 161.536 140.557ZM149.168 143.418C149.214 143.407 149.262 143.401 149.311 143.399C150.502 143.347 151.711 143.229 152.905 143.048C153.086 143.022 153.263 142.994 153.44 142.963C153.885 142.889 154.307 143.188 154.382 143.634C154.458 144.08 154.158 144.515 153.712 144.576C153.524 144.608 153.336 144.638 153.146 144.666C151.899 144.855 150.631 144.978 149.382 145.032C148.931 145.052 148.55 144.702 148.53 144.251C148.513 143.849 148.788 143.502 149.168 143.418Z" fill="url(#paint36_linear_6_110)"/>
</g>
<g opacity="0.3">
<path d="M139.723 75.3872C140.158 75.2902 140.592 75.5615 140.696 75.9974C140.8 76.4365 140.528 76.8774 140.088 76.981C138.765 77.2936 137.45 77.6897 136.179 78.1585C135.757 78.3098 135.285 78.0983 135.129 77.6741C134.973 77.2501 135.19 76.7803 135.613 76.6239C136.946 76.1332 138.325 75.7172 139.712 75.3895C139.715 75.3887 139.719 75.388 139.723 75.3872ZM143.844 74.6712C143.873 74.6647 143.901 74.66 143.931 74.6567C145.346 74.497 146.784 74.422 148.207 74.4333C148.659 74.4373 149.022 74.8055 149.018 75.2572C149.015 75.7094 148.643 76.0712 148.194 76.0689C146.837 76.058 145.464 76.1298 144.114 76.2815C143.666 76.3323 143.261 76.0094 143.21 75.5608C143.163 75.141 143.442 74.7608 143.844 74.6712ZM131.89 78.277C132.244 78.1982 132.62 78.363 132.794 78.7006C133.001 79.1013 132.844 79.5943 132.442 79.8015C131.233 80.4257 130.053 81.128 128.933 81.8905C128.557 82.1434 128.051 82.0477 127.797 81.6739C127.543 81.301 127.64 80.792 128.013 80.5378C129.187 79.7388 130.425 79.0024 131.692 78.3488C131.757 78.3155 131.823 78.2919 131.89 78.277ZM152.197 74.743C152.288 74.7228 152.383 74.7178 152.481 74.7303C153.893 74.9156 155.309 75.1903 156.687 75.5467C157.124 75.6595 157.387 76.1058 157.274 76.5432C157.16 76.979 156.714 77.242 156.278 77.1299C154.963 76.7903 153.615 76.5287 152.268 76.3517C151.821 76.2928 151.505 75.8821 151.564 75.4345C151.61 75.0847 151.871 74.8154 152.197 74.743ZM124.989 82.9741C125.272 82.9112 125.579 83.0005 125.783 83.2333C126.08 83.5736 126.046 84.09 125.706 84.3874C124.685 85.2808 123.708 86.246 122.803 87.2576C122.501 87.5948 121.984 87.6224 121.648 87.3209C121.312 87.0195 121.283 86.5023 121.584 86.166C122.534 85.1062 123.558 84.0935 124.629 83.1565C124.736 83.0632 124.86 83.0028 124.989 82.9741ZM119.416 89.1898C119.632 89.1416 119.867 89.181 120.063 89.3174C120.433 89.5761 120.523 90.0859 120.265 90.4561C119.486 91.5713 118.767 92.743 118.13 93.9386C117.918 94.3377 117.422 94.4882 117.024 94.2758C116.626 94.0634 116.475 93.5687 116.687 93.1704C117.355 91.9165 118.108 90.6878 118.924 89.5193C119.046 89.3451 119.224 89.2327 119.416 89.1898ZM115.492 96.5623C115.644 96.5285 115.807 96.5371 115.964 96.598C116.385 96.7602 116.595 97.2337 116.432 97.6552C115.942 98.9236 115.526 100.233 115.196 101.548C115.086 101.985 114.642 102.251 114.204 102.141C113.766 102.031 113.5 101.587 113.61 101.149C113.957 99.7706 114.393 98.3965 114.906 97.0658C115.009 96.8009 115.234 96.6197 115.492 96.5623Z" fill="url(#paint37_linear_6_110)"/>
<path d="M160.32 76.8447C160.474 76.8104 160.639 76.8203 160.797 76.8824C161.448 77.1391 162.095 77.4164 162.719 77.7061C163.128 77.8964 163.306 78.3826 163.116 78.7923C162.925 79.2005 162.44 79.379 162.03 79.1897C161.435 78.9132 160.818 78.6489 160.197 78.4035C159.777 78.2379 159.571 77.7627 159.736 77.3429C159.84 77.0808 160.064 76.9017 160.32 76.8447Z" fill="url(#paint38_linear_6_110)"/>
</g>
<path d="M161.953 87.3024C161.814 87.1931 161.621 87.1838 161.473 87.2794L157.235 90.0052C155.103 89.009 152.797 88.3455 150.39 88.0751L148.198 83.5413C148.121 83.3822 147.952 83.2895 147.777 83.3103L141.775 84.0231C141.599 84.044 141.456 84.1738 141.419 84.3463L140.35 89.2674C138.074 90.094 135.987 91.279 134.148 92.7469L129.389 91.0895C129.222 91.0314 129.037 91.0855 128.928 91.2243L125.188 95.9724C125.078 96.1113 125.069 96.3041 125.165 96.4526L127.89 100.691C126.894 102.823 126.231 105.129 125.96 107.536L121.426 109.727C121.267 109.804 121.174 109.973 121.195 110.149L121.908 116.151C121.929 116.326 122.059 116.469 122.231 116.507L127.152 117.575C127.979 119.852 129.164 121.938 130.632 123.778L128.975 128.536C128.917 128.703 128.971 128.888 129.109 128.998L133.858 132.738C133.996 132.847 134.189 132.856 134.338 132.761L138.576 130.035C140.708 131.031 143.014 131.695 145.421 131.965L147.612 136.499C147.689 136.658 147.858 136.751 148.034 136.73L154.036 136.017C154.212 135.996 154.354 135.867 154.392 135.694L155.461 130.773C157.737 129.946 159.824 128.761 161.663 127.293L166.422 128.951C166.588 129.009 166.774 128.955 166.883 128.816L170.623 124.068C170.732 123.929 170.742 123.736 170.646 123.588L167.92 119.35C168.917 117.218 169.58 114.911 169.85 112.505L174.385 110.313C174.543 110.236 174.636 110.067 174.615 109.892L173.903 103.89C173.882 103.714 173.752 103.571 173.579 103.534L168.658 102.465C167.832 100.189 166.647 98.102 165.179 96.2625L166.836 91.5037C166.894 91.3369 166.84 91.1516 166.701 91.0422L161.953 87.3024Z" fill="url(#paint39_linear_6_110)"/>
<path opacity="0.56" d="M146.573 103.98C147.86 103.693 149.201 103.826 150.427 104.373C151.935 105.046 153.091 106.267 153.681 107.81C154.9 110.994 153.301 114.577 150.116 115.797C146.924 117.011 143.348 115.415 142.129 112.231C141.538 110.688 141.584 109.007 142.258 107.499C142.931 105.99 144.152 104.834 145.695 104.244C145.984 104.134 146.277 104.046 146.573 103.98ZM148.892 114.462C149.106 114.414 149.32 114.35 149.532 114.269C151.874 113.372 153.05 110.737 152.154 108.394C151.72 107.26 150.87 106.361 149.76 105.866C148.65 105.371 147.415 105.338 146.279 105.771C145.144 106.206 144.246 107.056 143.751 108.165C143.255 109.275 143.222 110.511 143.656 111.647C144.472 113.777 146.727 114.944 148.892 114.462Z" fill="white"/>
<path opacity="0.56" d="M144.474 95.0955C144.979 94.9831 145.494 94.8954 146.018 94.8326C147.059 94.7087 148.114 94.6905 149.156 94.7792C149.203 94.7835 149.249 94.7877 149.296 94.7921C149.658 94.826 149.942 95.0907 150.018 95.4274C150.036 95.5092 150.042 95.5954 150.034 95.6832C149.991 96.1327 149.592 96.4606 149.143 96.4198C148.171 96.3279 147.185 96.3407 146.212 96.4567L146.211 96.4568C146.158 96.463 146.104 96.4701 146.051 96.477C143.751 96.7726 141.612 97.6303 139.781 98.9542C138.787 99.673 137.884 100.53 137.097 101.511C137.09 101.519 137.084 101.527 137.078 101.535C137.058 101.56 137.039 101.584 137.02 101.609C134.744 104.498 133.73 108.1 134.164 111.751C134.219 112.224 134.299 112.69 134.401 113.148C135.088 116.231 136.801 118.961 139.316 120.943C142.205 123.218 145.806 124.232 149.458 123.798C153.107 123.363 156.373 121.535 158.649 118.646C160.925 115.757 161.939 112.155 161.505 108.504C161.451 108.039 161.372 107.579 161.271 107.125C160.832 105.158 159.969 103.31 158.735 101.714C158.659 101.616 158.608 101.506 158.584 101.392C158.517 101.093 158.622 100.768 158.881 100.568C159.239 100.292 159.752 100.357 160.029 100.715C161.409 102.5 162.376 104.568 162.867 106.768C162.98 107.276 163.068 107.791 163.13 108.311C163.615 112.397 162.48 116.426 159.934 119.659C157.388 122.89 153.739 124.94 149.651 125.422C145.565 125.908 141.536 124.773 138.304 122.227C135.49 120.011 133.574 116.956 132.806 113.507C132.692 112.994 132.602 112.473 132.54 111.944C131.6 104.034 136.86 96.7912 144.474 95.0955Z" fill="white"/>
<defs>
<linearGradient id="paint0_linear_6_110" x1="482.152" y1="452.188" x2="149.495" y2="160.966" gradientUnits="userSpaceOnUse">
<stop stop-color="#B37CFF"/>
<stop offset="1" stop-color="#F895E7"/>
</linearGradient>
<linearGradient id="paint1_linear_6_110" x1="382.358" y1="144.282" x2="274.762" y2="175.118" gradientUnits="userSpaceOnUse">
<stop stop-color="#A737D5"/>
<stop offset="1" stop-color="#EF497A"/>
</linearGradient>
<linearGradient id="paint2_linear_6_110" x1="371.491" y1="264.773" x2="357.583" y2="128.16" gradientUnits="userSpaceOnUse">
<stop stop-color="#CE1567"/>
<stop offset="1" stop-color="#7A1DBC"/>
</linearGradient>
<linearGradient id="paint3_linear_6_110" x1="255.152" y1="373.596" x2="181.074" y2="151.36" gradientUnits="userSpaceOnUse">
<stop stop-color="#2B3582"/>
<stop offset="1" stop-color="#150E42"/>
</linearGradient>
<linearGradient id="paint4_linear_6_110" x1="342.472" y1="186.301" x2="-187.197" y2="637.102" gradientUnits="userSpaceOnUse">
<stop stop-color="#FDF53F"/>
<stop offset="1" stop-color="#D93C65"/>
</linearGradient>
<linearGradient id="paint5_linear_6_110" x1="82.7264" y1="360.297" x2="412.73" y2="440.568" gradientUnits="userSpaceOnUse">
<stop stop-color="#2B3582"/>
<stop offset="1" stop-color="#150E42"/>
</linearGradient>
<linearGradient id="paint6_linear_6_110" x1="238.943" y1="131.213" x2="189.671" y2="452.616" gradientUnits="userSpaceOnUse">
<stop stop-color="#53D8FF"/>
<stop offset="0.2057" stop-color="#4DB9FD"/>
<stop offset="1" stop-color="#3840F7"/>
</linearGradient>
<linearGradient id="paint7_linear_6_110" x1="328.838" y1="121.696" x2="282.925" y2="173.478" gradientUnits="userSpaceOnUse">
<stop stop-color="#53D8FF"/>
<stop offset="0.2057" stop-color="#4DB9FD"/>
<stop offset="1" stop-color="#3840F7"/>
</linearGradient>
<linearGradient id="paint8_linear_6_110" x1="385.065" y1="801.705" x2="380.808" y2="765.632" gradientUnits="userSpaceOnUse">
<stop stop-color="#53D8FF"/>
<stop offset="0.2057" stop-color="#4DB9FD"/>
<stop offset="1" stop-color="#3840F7"/>
</linearGradient>
<linearGradient id="paint9_linear_6_110" x1="348.335" y1="381.601" x2="324.411" y2="381.601" gradientUnits="userSpaceOnUse">
<stop stop-color="#2B3582"/>
<stop offset="1" stop-color="#150E42"/>
</linearGradient>
<linearGradient id="paint10_linear_6_110" x1="346.061" y1="374.865" x2="339.127" y2="374.865" gradientUnits="userSpaceOnUse">
<stop stop-color="#F9B776"/>
<stop offset="1" stop-color="#F47960"/>
</linearGradient>
<linearGradient id="paint11_linear_6_110" x1="441.055" y1="795.096" x2="436.798" y2="759.023" gradientUnits="userSpaceOnUse">
<stop stop-color="#53D8FF"/>
<stop offset="0.2057" stop-color="#4DB9FD"/>
<stop offset="1" stop-color="#3840F7"/>
</linearGradient>
<linearGradient id="paint12_linear_6_110" x1="397.344" y1="378.631" x2="383.497" y2="378.631" gradientUnits="userSpaceOnUse">
<stop stop-color="#2B3582"/>
<stop offset="1" stop-color="#150E42"/>
</linearGradient>
<linearGradient id="paint13_linear_6_110" x1="390.147" y1="369.084" x2="381.859" y2="369.084" gradientUnits="userSpaceOnUse">
<stop stop-color="#F9B776"/>
<stop offset="1" stop-color="#F47960"/>
</linearGradient>
<linearGradient id="paint14_linear_6_110" x1="409.344" y1="393.319" x2="300.475" y2="270.147" gradientUnits="userSpaceOnUse">
<stop stop-color="#2B3582"/>
<stop offset="1" stop-color="#150E42"/>
</linearGradient>
<linearGradient id="paint15_linear_6_110" x1="285.926" y1="196.083" x2="475.913" y2="361.323" gradientUnits="userSpaceOnUse">
<stop stop-color="#CB236D"/>
<stop offset="1" stop-color="#4C246D"/>
</linearGradient>
<linearGradient id="paint16_linear_6_110" x1="358.974" y1="206.228" x2="337.465" y2="305.709" gradientUnits="userSpaceOnUse">
<stop stop-color="#53D8FF"/>
<stop offset="1" stop-color="#3840F7"/>
</linearGradient>
<linearGradient id="paint17_linear_6_110" x1="352.178" y1="248.284" x2="381.68" y2="274.408" gradientUnits="userSpaceOnUse">
<stop stop-color="#F9B776"/>
<stop offset="1" stop-color="#F47960"/>
</linearGradient>
<linearGradient id="paint18_linear_6_110" x1="301.764" y1="178.572" x2="490.894" y2="343.067" gradientUnits="userSpaceOnUse">
<stop stop-color="#CB236D"/>
<stop offset="1" stop-color="#4C246D"/>
</linearGradient>
<linearGradient id="paint19_linear_6_110" x1="272.033" y1="212.756" x2="461.163" y2="377.251" gradientUnits="userSpaceOnUse">
<stop stop-color="#CB236D"/>
<stop offset="1" stop-color="#4C246D"/>
</linearGradient>
<linearGradient id="paint20_linear_6_110" x1="296.873" y1="250.755" x2="273.639" y2="250.755" gradientUnits="userSpaceOnUse">
<stop stop-color="#F9B776"/>
<stop offset="1" stop-color="#F47960"/>
</linearGradient>
<linearGradient id="paint21_linear_6_110" x1="319.457" y1="188.665" x2="319.711" y2="232.053" gradientUnits="userSpaceOnUse">
<stop stop-color="#F9B776"/>
<stop offset="1" stop-color="#F47960"/>
</linearGradient>
<linearGradient id="paint22_linear_6_110" x1="384.036" y1="267.775" x2="262.37" y2="267.775" gradientUnits="userSpaceOnUse">
<stop stop-color="#2B3582"/>
<stop offset="1" stop-color="#150E42"/>
</linearGradient>
<linearGradient id="paint23_linear_6_110" x1="275.36" y1="213.826" x2="151.092" y2="213.826" gradientUnits="userSpaceOnUse">
<stop stop-color="#2B3582"/>
<stop offset="1" stop-color="#150E42"/>
</linearGradient>
<linearGradient id="paint24_linear_6_110" x1="305.379" y1="181.531" x2="322.481" y2="212.544" gradientUnits="userSpaceOnUse">
<stop stop-color="#F9B776"/>
<stop offset="1" stop-color="#F47960"/>
</linearGradient>
<linearGradient id="paint25_linear_6_110" x1="320.548" y1="190.606" x2="295.299" y2="186.963" gradientUnits="userSpaceOnUse">
<stop stop-color="#2B3582"/>
<stop offset="1" stop-color="#150E42"/>
</linearGradient>
<linearGradient id="paint26_linear_6_110" x1="333.141" y1="208.142" x2="318.697" y2="188.302" gradientUnits="userSpaceOnUse">
<stop stop-color="#F9B776"/>
<stop offset="1" stop-color="#F47960"/>
</linearGradient>
<linearGradient id="paint27_linear_6_110" x1="340.528" y1="261.44" x2="370.03" y2="287.565" gradientUnits="userSpaceOnUse">
<stop stop-color="#F9B776"/>
<stop offset="1" stop-color="#F47960"/>
</linearGradient>
<linearGradient id="paint28_linear_6_110" x1="276.108" y1="248.026" x2="267.787" y2="248.026" gradientUnits="userSpaceOnUse">
<stop stop-color="#F9B776"/>
<stop offset="1" stop-color="#F47960"/>
</linearGradient>
<linearGradient id="paint29_linear_6_110" x1="149.422" y1="164.896" x2="75.7188" y2="181.311" gradientUnits="userSpaceOnUse">
<stop stop-color="#B37CFF"/>
<stop offset="1" stop-color="#F895E7"/>
</linearGradient>
<linearGradient id="paint30_linear_6_110" x1="76.4598" y1="201.523" x2="72.1552" y2="202.482" gradientUnits="userSpaceOnUse">
<stop stop-color="#B37CFF"/>
<stop offset="1" stop-color="#F895E7"/>
</linearGradient>
<linearGradient id="paint31_linear_6_110" x1="46.7907" y1="173.608" x2="43.8369" y2="174.265" gradientUnits="userSpaceOnUse">
<stop stop-color="#B37CFF"/>
<stop offset="1" stop-color="#F895E7"/>
</linearGradient>
<linearGradient id="paint32_linear_6_110" x1="111.638" y1="123.899" x2="35.7223" y2="140.807" gradientUnits="userSpaceOnUse">
<stop stop-color="#B37CFF"/>
<stop offset="1" stop-color="#F895E7"/>
</linearGradient>
<linearGradient id="paint33_linear_6_110" x1="115.641" y1="106.211" x2="111.392" y2="107.157" gradientUnits="userSpaceOnUse">
<stop stop-color="#B37CFF"/>
<stop offset="1" stop-color="#F895E7"/>
</linearGradient>
<linearGradient id="paint34_linear_6_110" x1="815.837" y1="717.613" x2="1019.45" y2="876.259" gradientUnits="userSpaceOnUse">
<stop stop-color="#A737D5"/>
<stop offset="1" stop-color="#EF497A"/>
</linearGradient>
<linearGradient id="paint35_linear_6_110" x1="179.591" y1="93.744" x2="177.49" y2="94.2119" gradientUnits="userSpaceOnUse">
<stop stop-color="#B37CFF"/>
<stop offset="1" stop-color="#F895E7"/>
</linearGradient>
<linearGradient id="paint36_linear_6_110" x1="185.698" y1="117.156" x2="144.525" y2="126.326" gradientUnits="userSpaceOnUse">
<stop stop-color="#B37CFF"/>
<stop offset="1" stop-color="#F895E7"/>
</linearGradient>
<linearGradient id="paint37_linear_6_110" x1="158.531" y1="81.7778" x2="111.538" y2="92.2444" gradientUnits="userSpaceOnUse">
<stop stop-color="#B37CFF"/>
<stop offset="1" stop-color="#F895E7"/>
</linearGradient>
<linearGradient id="paint38_linear_6_110" x1="163.043" y1="77.6871" x2="159.829" y2="78.403" gradientUnits="userSpaceOnUse">
<stop stop-color="#B37CFF"/>
<stop offset="1" stop-color="#F895E7"/>
</linearGradient>
<linearGradient id="paint39_linear_6_110" x1="177.66" y1="56.6747" x2="54.8945" y2="276.775" gradientUnits="userSpaceOnUse">
<stop stop-color="#A737D5"/>
<stop offset="1" stop-color="#EF497A"/>
</linearGradient>
</defs>
</svg>
